<svg xmlns="http://www.w3.org/2000/svg" width="256" height="256" viewBox="0 0 100 100"><rect width="100" height="100" rx="0" fill="#ffffff"></rect><path fill="#000000" d="M52.49 29.55L52.49 34.18L38.78 34.18L38.78 72.21L33.18 72.21L33.18 34.18L19.50 34.18L19.50 29.55L52.49 29.55ZM53.75 56.50L53.75 56.09Q53.75 48.80 57.21 44.36Q60.66 39.92 66.26 39.92L66.26 39.92Q71.83 39.92 75.08 43.73L75.08 43.73L75.08 27.21L80.50 27.21L80.50 72.21L75.52 72.21L75.25 68.81Q72.00 72.79 66.20 72.79L66.20 72.79Q60.69 72.79 57.22 68.28Q53.75 63.77 53.75 56.50L53.75 56.50ZM59.17 56.71L59.17 56.71Q59.17 62.10 61.40 65.15Q63.62 68.19 67.55 68.19L67.55 68.19Q72.71 68.19 75.08 63.56L75.08 63.56L75.08 49.00Q72.65 44.52 67.61 44.52L67.61 44.52Q63.62 44.52 61.40 47.60Q59.17 50.67 59.17 56.71Z"></path></svg>